<svg xmlns="http://www.w3.org/2000/svg" xmlns:xlink="http://www.w3.org/1999/xlink" width="24" height="24" viewBox="0 0 24 24">
    <defs>
        <path id="prefix__a" d="M16.667 16.667H7.333V7.333H12V6H7.333C6.593 6 6 6.6 6 7.333v9.334C6 17.4 6.593 18 7.333 18h9.334C17.4 18 18 17.4 18 16.667V12h-1.333v4.667zM13.333 6v1.333h2.394l-6.554 6.554.94.94 6.554-6.554v2.394H18V6h-4.667z"/>
    </defs>
    <g fill="none" fill-rule="evenodd">
        <path d="M0 0L24 0 24 24 0 24z"/>
        <mask id="prefix__b" fill="#fff">
            <use xlink:href="#prefix__a"/>
        </mask>
        <use fill="#000" xlink:href="#prefix__a"/>
        <g fill="#FFF" fill-rule="nonzero" mask="url(#prefix__b)">
            <path d="M0 0L24 0 24 24 0 24z"/>
        </g>
    </g>
</svg>
