<svg xmlns="http://www.w3.org/2000/svg" xmlns:xlink="http://www.w3.org/1999/xlink" width="24" height="24" viewBox="0 0 24 24">
    <defs>
        <path id="prefix__a" d="M12 22.5c1.1 0 2-.9 2-2h-4c0 1.1.89 2 2 2zm6-6v-5c0-3.07-1.64-5.64-4.5-6.32V4.5c0-.83-.67-1.5-1.5-1.5s-1.5.67-1.5 1.5v.68C7.63 5.86 6 8.42 6 11.5v5l-2 2v1h16v-1l-2-2z"/>
    </defs>
    <g fill="none" fill-rule="evenodd">
        <path d="M0 0L24 0 24 24 0 24z"/>
        <mask id="prefix__b" fill="#fff">
            <use xlink:href="#prefix__a"/>
        </mask>
        <use fill="#000" xlink:href="#prefix__a"/>
        <g fill="#9E9E9E" fill-rule="nonzero" mask="url(#prefix__b)">
            <path d="M0 0H24V24H0z" transform="translate(0 -1)"/>
        </g>
    </g>
</svg>
